<?xml version="1.0" encoding="UTF-8"?>
<svg id="Layer_2" data-name="Layer 2" xmlns="http://www.w3.org/2000/svg" viewBox="0 0 46.1 46.1">
  <defs>
    <style>
      .cls-1 {
        fill: #fff;
      }
    </style>
  </defs>
  <g id="Layer_1-2" data-name="Layer 1">
    <path class="cls-1" d="M39.46,0H6.64C2.97,0,0,2.97,0,6.64v32.81c0,3.67,2.97,6.64,6.64,6.64h32.81c3.67,0,6.64-2.97,6.64-6.64V6.64c0-3.67-2.97-6.64-6.64-6.64ZM5.36,23.06c.11-21.41,28.57-25.94,34.64-5.29h-4.41C29.52,2.56,9,7.63,9.55,23.71c1.1,18.22,25.9,18.24,27,0h-19.09c-1.92,0-3.48-1.56-3.48-3.48h0c.04-9.86,14.91-11.66,17.77-2.45h-4.95c-2.36-3.44-8.3-1.85-8.28,2.45h21.27c.44,0,.8.33.85.76.07.68.11,1.37.11,2.07-.72,24.8-34.64,24.83-35.38,0ZM13.98,26.16h4.54c.02,5.6,9.05,5.59,9.07,0h4.54c-.05,11.19-18.1,11.18-18.15,0Z"/>
  </g>
</svg>