<?xml version="1.0" encoding="UTF-8"?>
<svg id="Layer_2" data-name="Layer 2" xmlns="http://www.w3.org/2000/svg" viewBox="0 0 170.47 53.49">
  <defs>
    <style>
      .cls-1 {
        fill: #fff;
      }
    </style>
  </defs>
  <g id="Layer_1-2" data-name="Layer 1">
    <path class="cls-1" d="M47.5,0H5.99C2.68,0,0,2.68,0,5.99v41.51c0,3.31,2.68,5.99,5.99,5.99h41.51c3.31,0,5.99-2.68,5.99-5.99V5.99c0-3.31-2.68-5.99-5.99-5.99ZM6.22,26.76c.13-24.84,33.15-30.1,40.2-6.13h-5.11c-7.05-17.65-30.87-11.77-30.23,6.89,1.28,21.15,30.05,21.16,31.33,0h-22.16c-2.23,0-4.04-1.81-4.04-4.04.04-11.44,17.3-13.53,20.62-2.85h-5.74c-2.74-3.99-9.64-2.15-9.61,2.85h24.68c.51,0,.93.38.98.88.08.79.13,1.59.13,2.4-.84,28.78-40.2,28.81-41.05,0ZM16.22,30.36h5.26c.03,6.49,10.5,6.49,10.53,0h5.26c-.05,12.99-21.01,12.98-21.06,0Z"/>
    <path class="cls-1" d="M84.13,31.42l-3.1,2.22c-1.35-1.4-2.82-2.1-4.41-2.1-.8,0-1.41.19-1.85.56-.44.37-.66.78-.66,1.23s.17.79.52,1.03.89.41,1.62.52l1.86.26c2.21.32,3.79.85,4.76,1.59.96.74,1.44,1.82,1.44,3.25,0,1.8-.68,3.22-2.04,4.28-1.36,1.06-3.23,1.59-5.62,1.59-1.83,0-3.33-.29-4.5-.87-1.17-.58-2.23-1.43-3.18-2.54l3.2-2.03c.54.67,1.26,1.19,2.15,1.56.89.37,1.8.56,2.72.56.75,0,1.45-.17,2.11-.5.66-.33.99-.82.99-1.45,0-.54-.26-.93-.77-1.18-.52-.25-1.24-.43-2.16-.54l-1.93-.26c-1.61-.22-2.9-.72-3.89-1.49s-1.48-1.86-1.48-3.25c0-1.69.6-3.04,1.8-4.08,1.2-1.03,2.87-1.55,5-1.55,1.61,0,2.99.29,4.15.87,1.16.58,2.25,1.36,3.27,2.32Z"/>
    <path class="cls-1" d="M98.34,31.94h-4.36v13.52h-4.24v-13.52h-4.39v-3.31h13v3.31Z"/>
    <path class="cls-1" d="M114.43,28.63v10.18c0,2.13-.64,3.84-1.93,5.11-1.29,1.28-3.06,1.92-5.32,1.92-2.1,0-3.81-.57-5.14-1.71-1.33-1.14-1.99-2.82-1.99-5.04v-10.47h4.24v10.95c0,1.07.25,1.8.75,2.19.5.4,1.26.6,2.28.6s1.77-.25,2.22-.75c.44-.5.67-1.25.67-2.25v-10.73h4.22Z"/>
    <path class="cls-1" d="M117.51,45.46v-16.83h5.77c3.21,0,5.56.7,7.06,2.1,1.49,1.4,2.24,3.51,2.24,6.32,0,1.08-.13,2.09-.39,3.02-.26.93-.7,1.82-1.3,2.67-.6.85-1.48,1.52-2.62,2-1.14.48-2.52.73-4.13.73h-6.63ZM121.76,32.18v9.9h1.36c1.86,0,3.2-.38,4.02-1.13.82-.75,1.23-2.07,1.23-3.95,0-.7-.07-1.32-.2-1.87-.14-.55-.36-1.05-.68-1.51-.32-.46-.78-.81-1.39-1.06-.61-.25-1.36-.37-2.25-.37h-2.07Z"/>
    <path class="cls-1" d="M139.86,45.46h-4.2v-16.83h4.2v16.83Z"/>
    <path class="cls-1" d="M142.94,36.97c0-.79.09-1.59.27-2.4.18-.8.49-1.6.92-2.38.43-.79.95-1.48,1.57-2.07s1.41-1.08,2.36-1.45c.95-.37,2.02-.56,3.2-.56,1.46,0,2.76.28,3.9.83,1.14.56,2.03,1.29,2.68,2.21.65.91,1.14,1.88,1.47,2.91.33,1.03.49,2.06.49,3.11,0,1.54-.32,2.97-.97,4.28-.64,1.31-1.63,2.39-2.94,3.24-1.32.85-2.85,1.28-4.58,1.28s-3.32-.43-4.61-1.3c-1.3-.87-2.25-1.97-2.85-3.3s-.91-2.8-.91-4.39ZM147.09,36.93c0,.95.14,1.83.41,2.62.27.8.74,1.47,1.41,2.01.67.55,1.48.82,2.43.82s1.81-.29,2.48-.86c.67-.57,1.13-1.24,1.38-1.99.25-.76.38-1.56.38-2.42,0-1.62-.36-2.94-1.08-3.96-.72-1.02-1.8-1.53-3.23-1.53-.76,0-1.43.17-1.99.5-.56.33-1,.77-1.3,1.31-.3.54-.52,1.1-.67,1.68-.14.58-.21,1.18-.21,1.8Z"/>
    <g>
      <path class="cls-1" d="M82.23,16.28v-1.83h-3.91v3.52h3.78c-.06,1.1-.46,1.6-1.19,2.1-.73.5-1.56.75-2.49.75s-1.66-.19-2.29-.56c-.63-.38-1.09-.87-1.38-1.48-.29-.62-.49-1.2-.6-1.76-.11-.56-.17-1.14-.17-1.75,0-1.71.39-3.04,1.18-4.01.79-.96,1.87-1.45,3.22-1.45.91,0,1.71.23,2.41.69.69.46,1.21,1.03,1.54,1.7l3.21-1.94c-.26-.34-.47-.6-.64-.79-.17-.19-.5-.51-1-.96-.5-.45-1-.8-1.47-1.07-.48-.26-1.11-.51-1.89-.74-.78-.23-1.6-.35-2.44-.35-1.15,0-2.2.18-3.16.55-.96.37-1.75.85-2.37,1.46-.62.61-1.15,1.31-1.58,2.11-.43.8-.74,1.61-.93,2.43-.19.82-.29,1.65-.29,2.48,0,1.1.16,2.16.47,3.19.31,1.03.77,1.97,1.37,2.82.6.85,1.39,1.54,2.39,2.05,1,.51,2.13.77,3.39.77,1.9,0,3.56-.65,4.98-1.94v1.56h3.3v-7.55h-3.44Z"/>
      <path class="cls-1" d="M97.42,6.93h-4.41l-6.27,16.9h4.5l.84-2.7.98-3.04,2.08-6.71,2.2,6.71.96,3.04.84,2.7h4.5l-6.22-16.9Z"/>
      <path class="cls-1" d="M147.97,6.93h-4.41l-6.27,16.9h4.5l.84-2.7.98-3.04,2.08-6.71,2.2,6.71.96,3.04.84,2.7h4.5l-6.22-16.9Z"/>
      <path class="cls-1" d="M118.77,6.93h-13.64v3.28h8.57l-9.36,10.43v3.18h14.38v-3.33h-9.16l9.21-10.27v-3.3Z"/>
      <path class="cls-1" d="M134.67,9.04c-1.5-1.4-3.86-2.1-7.08-2.1h-5.79v16.9h6.66c1.61,0,2.99-.24,4.14-.73,1.15-.49,2.03-1.16,2.64-2.01.6-.85,1.04-1.75,1.3-2.68.27-.93.4-1.94.4-3.02,0-2.83-.75-4.94-2.25-6.35ZM131.45,19.3c-.82.76-2.17,1.14-4.04,1.14h-1.36v-9.93h2.08c.9,0,1.65.12,2.26.37.62.25,1.08.6,1.4,1.06.32.46.55.97.68,1.52.13.55.2,1.18.2,1.88,0,1.89-.41,3.21-1.23,3.96Z"/>
      <path class="cls-1" d="M167.03,16.28v-1.83h-3.91v3.52h3.78c-.06,1.1-.46,1.6-1.19,2.1-.73.5-1.56.75-2.49.75s-1.66-.19-2.29-.56c-.63-.38-1.09-.87-1.38-1.48-.29-.62-.49-1.2-.6-1.76-.11-.56-.17-1.14-.17-1.75,0-1.71.39-3.04,1.18-4.01.79-.96,1.87-1.45,3.22-1.45.91,0,1.71.23,2.41.69.69.46,1.21,1.03,1.54,1.7l3.21-1.94c-.25-.34-.47-.6-.64-.79-.17-.19-.5-.51-1-.96-.5-.45-.99-.8-1.47-1.07-.48-.26-1.11-.51-1.89-.74-.78-.23-1.6-.35-2.44-.35-1.15,0-2.2.18-3.16.55-.96.37-1.75.85-2.37,1.46-.62.61-1.15,1.31-1.58,2.11-.43.8-.74,1.61-.93,2.43-.19.82-.29,1.65-.29,2.48,0,1.1.15,2.16.46,3.19.31,1.03.77,1.97,1.37,2.82.6.85,1.4,1.54,2.39,2.05s2.13.77,3.39.77c1.9,0,3.56-.65,4.98-1.94v1.56h3.3v-7.55h-3.44Z"/>
    </g>
  </g>
</svg>