<?xml version="1.0" encoding="UTF-8"?>
<svg id="Layer_2" data-name="Layer 2" xmlns="http://www.w3.org/2000/svg" viewBox="0 0 380.96 46.1">
  <defs>
    <style>
      .cls-1 {
        fill: #fff;
      }

      .cls-2 {
        fill: #518ec6;
      }
    </style>
  </defs>
  <g id="Layer_1-2" data-name="Layer 1">
    <path class="cls-2" d="M39.46,0H6.64C2.97,0,0,2.97,0,6.64v32.81c0,3.67,2.97,6.64,6.64,6.64h32.81c3.67,0,6.64-2.97,6.64-6.64V6.64c0-3.67-2.97-6.64-6.64-6.64ZM5.36,23.06c.11-21.41,28.57-25.94,34.64-5.29h-4.41C29.52,2.56,9,7.63,9.55,23.71c1.1,18.22,25.9,18.24,27,0h-19.09c-1.92,0-3.48-1.56-3.48-3.48h0c.04-9.86,14.91-11.66,17.77-2.45h-4.95c-2.36-3.44-8.3-1.85-8.28,2.45h21.27c.44,0,.8.33.85.76.07.68.11,1.37.11,2.07-.72,24.8-34.64,24.83-35.38,0ZM13.98,26.16h4.54c.02,5.6,9.05,5.59,9.07,0h4.54c-.05,11.19-18.1,11.18-18.15,0Z"/>
    <g>
      <path class="cls-1" d="M87.51,25.61v-4.72h-10.09v9.08h9.77c-.16,2.84-1.19,4.12-3.08,5.42-1.9,1.29-4.04,1.95-6.42,1.95s-4.28-.49-5.9-1.46c-1.63-.97-2.82-2.24-3.56-3.83-.75-1.59-1.26-3.1-1.55-4.54-.29-1.44-.43-2.95-.43-4.52,0-4.41,1.01-7.85,3.05-10.35,2.04-2.49,4.82-3.74,8.31-3.74,2.36,0,4.43.6,6.22,1.79,1.78,1.2,3.12,2.66,3.99,4.39l8.28-5c-.67-.87-1.21-1.55-1.64-2.04-.43-.49-1.3-1.32-2.59-2.47-1.3-1.16-2.57-2.07-3.8-2.76-1.24-.68-2.87-1.31-4.89-1.92-2.02-.59-4.12-.89-6.3-.89-2.96,0-5.69.47-8.16,1.42-2.47.94-4.51,2.2-6.12,3.76-1.61,1.57-2.97,3.38-4.08,5.44-1.12,2.06-1.92,4.15-2.41,6.27-.5,2.12-.75,4.26-.75,6.4,0,2.84.41,5.58,1.21,8.25.8,2.65,1.98,5.08,3.52,7.29,1.54,2.2,3.6,3.97,6.18,5.29,2.57,1.32,5.49,1.98,8.74,1.98,4.91,0,9.19-1.67,12.86-5.01v4.02h8.53v-19.5h-8.88Z"/>
      <path class="cls-1" d="M126.73,1.49h-11.37l-16.19,43.62h11.62l2.16-6.98,2.53-7.85,5.38-17.32,5.69,17.32,2.47,7.85,2.16,6.98h11.62L126.73,1.49Z"/>
      <path class="cls-1" d="M257.25,1.49h-11.37l-16.19,43.62h11.62l2.16-6.98,2.53-7.85,5.38-17.32,5.69,17.32,2.47,7.85,2.16,6.98h11.62L257.25,1.49Z"/>
      <path class="cls-1" d="M181.85,1.49h-35.22v8.46h22.12l-24.16,26.94v8.22h37.13v-8.59h-23.66l23.78-26.51V1.49Z"/>
      <path class="cls-1" d="M222.89,6.92c-3.87-3.62-9.97-5.43-18.29-5.43h-14.96v43.62h17.18c4.16,0,7.73-.62,10.69-1.87,2.97-1.26,5.24-2.99,6.8-5.2,1.56-2.2,2.68-4.51,3.36-6.93.69-2.41,1.02-5.01,1.02-7.81,0-7.3-1.94-12.76-5.81-16.38ZM214.58,33.4c-2.12,1.96-5.59,2.93-10.42,2.93h-3.51V10.69h5.37c2.32,0,4.25.32,5.84.96,1.59.64,2.8,1.56,3.62,2.75.82,1.2,1.41,2.5,1.76,3.92.35,1.42.52,3.04.52,4.85,0,4.87-1.06,8.28-3.18,10.24Z"/>
      <path class="cls-1" d="M306.45,25.61v-4.72h-10.08v9.08h9.75c-.16,2.84-1.19,4.12-3.08,5.42-1.9,1.29-4.04,1.95-6.42,1.95s-4.28-.49-5.9-1.46c-1.63-.97-2.82-2.24-3.56-3.83-.74-1.59-1.26-3.1-1.55-4.54-.29-1.44-.43-2.95-.43-4.52,0-4.41,1.01-7.85,3.05-10.35,2.04-2.49,4.82-3.74,8.32-3.74,2.35,0,4.42.6,6.21,1.79,1.79,1.2,3.11,2.66,3.99,4.39l8.28-5c-.66-.87-1.21-1.55-1.64-2.04-.43-.49-1.3-1.32-2.59-2.47-1.3-1.16-2.56-2.07-3.8-2.76-1.24-.68-2.87-1.31-4.89-1.92-2.02-.59-4.12-.89-6.3-.89-2.96,0-5.69.47-8.16,1.42-2.47.94-4.51,2.2-6.12,3.76-1.61,1.57-2.96,3.38-4.08,5.44-1.11,2.06-1.92,4.15-2.41,6.27-.49,2.12-.74,4.26-.74,6.4,0,2.84.4,5.58,1.2,8.25.81,2.65,1.98,5.08,3.52,7.29,1.55,2.2,3.61,3.97,6.18,5.29s5.49,1.98,8.74,1.98c4.91,0,9.19-1.67,12.86-5.01v4.02h8.53v-19.5h-8.88Z"/>
    </g>
    <g>
      <path class="cls-1" d="M326.1,15.69l2.82-.36c0,.19,0,.36.03.53.02.17.07.44.15.81.08.37.2.71.34,1,.14.3.35.63.64.99.29.36.62.67,1,.91.38.24.87.45,1.48.61.6.17,1.28.25,2.02.25.48,0,.98-.06,1.48-.17s1.03-.3,1.58-.56c.55-.26.99-.67,1.34-1.21.34-.55.52-1.21.52-1.99,0-1-.32-1.74-.95-2.2-.63-.46-1.56-.82-2.79-1.06l-1.78-.36c-2.34-.46-4.08-1.12-5.21-1.97-1.13-.85-1.7-2.06-1.7-3.64s.62-2.81,1.87-3.85c1.3-1.08,3-1.62,5.1-1.62,2.34,0,4.16.49,5.44,1.48.8.6,1.37,1.24,1.72,1.94.34.7.61,1.58.8,2.64l-2.65.17c0-.28-.03-.57-.1-.88-.07-.31-.2-.66-.42-1.07-.21-.41-.49-.77-.84-1.09-.34-.32-.84-.59-1.49-.81-.65-.22-1.39-.33-2.23-.33-.71,0-1.38.08-2.01.25-.63.17-1.2.49-1.72.98-.51.48-.77,1.11-.77,1.87,0,.87.33,1.53.99,1.97.66.44,1.64.81,2.94,1.13l3.6.87c.37.09.67.17.91.24.23.07.64.24,1.23.53.59.29,1.06.61,1.42.96.36.35.7.85,1,1.51.31.65.46,1.39.46,2.2,0,1.62-.55,2.97-1.65,4.04-1.45,1.41-3.52,2.12-6.22,2.12-2.17,0-3.97-.46-5.38-1.37-1.73-1.12-2.71-2.93-2.96-5.44Z"/>
      <path class="cls-1" d="M359.31,4.59h-5.88v17.4h-2.62V4.59h-5.91v-2.29h14.42v2.29Z"/>
      <path class="cls-1" d="M363.59,2.3h2.62v13.02c0,1.47.38,2.66,1.13,3.57.75.91,1.95,1.37,3.58,1.37,1.73,0,2.98-.49,3.76-1.48.78-.99,1.17-2.26,1.17-3.82V2.3h2.65v13.19c0,1.95-.65,3.61-1.95,4.96-1.3,1.36-3.19,2.04-5.66,2.04-2.34,0-4.15-.63-5.41-1.9-1.26-1.26-1.9-2.87-1.9-4.82V2.3Z"/>
      <path class="cls-1" d="M327.57,25.11h7.81c2.47,0,4.49.85,6.04,2.57,1.55,1.71,2.33,4.15,2.33,7.31,0,1.32-.15,2.53-.45,3.63-.3,1.1-.78,2.13-1.44,3.1-.66.97-1.6,1.72-2.83,2.27-1.23.55-2.7.82-4.41.82h-7.06v-19.69ZM330.28,27.42v15.09h4.66c2.01,0,3.53-.67,4.57-1.99,1.04-1.33,1.56-3.18,1.56-5.56s-.52-4.09-1.55-5.47c-1.03-1.38-2.61-2.06-4.73-2.06h-4.52Z"/>
      <path class="cls-1" d="M353.42,44.79h-2.65v-19.69h2.65v19.69Z"/>
      <path class="cls-1" d="M380.96,34.78c0,1-.11,1.99-.32,2.94-.21.96-.57,1.9-1.07,2.83-.5.93-1.13,1.74-1.88,2.43-.75.69-1.7,1.25-2.86,1.67-1.15.43-2.44.64-3.85.64-1.3,0-2.53-.21-3.69-.64-1.16-.43-2.21-1.06-3.14-1.88-.93-.83-1.66-1.91-2.2-3.26-.54-1.35-.81-2.88-.81-4.59s.28-3.27.84-4.63c.56-1.36,1.31-2.44,2.24-3.25.94-.81,1.99-1.42,3.15-1.83,1.16-.41,2.39-.61,3.69-.61,2.97,0,5.37.94,7.18,2.83,1.81,1.89,2.72,4.34,2.72,7.35ZM363.98,34.95c0,2.55.64,4.56,1.91,6.05,1.27,1.49,3.02,2.23,5.23,2.23,2.06,0,3.75-.71,5.05-2.13,1.3-1.42,1.95-3.53,1.95-6.32,0-1.04-.13-2.02-.38-2.93-.25-.91-.64-1.76-1.16-2.55-.52-.79-1.26-1.42-2.2-1.88-.95-.47-2.05-.7-3.32-.7s-2.34.23-3.29.7c-.95.46-1.69,1.1-2.22,1.9-.53.8-.92,1.67-1.19,2.61-.26.94-.39,1.95-.39,3.03Z"/>
    </g>
  </g>
</svg>