<?xml version="1.0" encoding="UTF-8"?>
<svg id="Layer_1" data-name="Layer 1" xmlns="http://www.w3.org/2000/svg" viewBox="0 0 1936.82 639.42">
  <defs>
    <style>
      .cls-1 {
        fill: #fff;
      }
    </style>
  </defs>
  <g>
    <path class="cls-1" d="M223.5,338.18c30.42-85.55,99.27-143.95,176.02-150.49-10.29-8.96-20.33-18.2-30.07-27.76-12.86-12.62-26.61-26.47-44.45-29.01-14.37-2.04-28.91,3.92-40.45,12.73-11.54,8.8-20.67,20.31-30.16,31.28-21,24.27-44.35,46.49-69.63,66.26-1.21.95-2.43,1.89-3.65,2.84,2.18,1.1,4.46,2.31,6.85,3.67,19.95,11.31,23.78,12.02,29.66,14.83,6.02,2.88,11.21,5.38,5.42,14.07l-15.39,27.61c-1.84,2.66-5.22,3.59-8.07,2.23l-42.1-20.28c-1.13-.54-5.67-2.55-9.87-4.26-4,9.15-6.4,19.07-7.93,28.97-6.07,39.38.48,79.08,4.59,118.29,1.79,17.03.24,34.24,1.48,50.9,1.22,16.35,16.51,20.71,30.67,21.99,24.36,2.19,48.8,2.81,73.27,2.93-37.46-30.57-51.86-94.65-26.2-166.81Z"/>
    <path class="cls-1" d="M478.65,286.27c-31.68,42.55-115.36,53.56-150.59,53.22-5.29-.05-12.97,1.91-10.23-2.9,9.61-16.84,13.79-28.79,17.9-34,2.43-3.08,4.72-3.41,12.61-3.41,10.99,0,35.18-7.54,41.25-9.28,14.9-4.26,40.81-13.05,50.79-28.05,3.51-5.27,4.41-13.53,3.58-19.6-2.29-16.67-29.57-14.52-46.7-11.42-20.91,3.79-33.07,12.68-42.3,17.79-40.54,22.46-63.51,61.24-78.65,107.64-10.94,33.53-13.53,73.44,8.67,97.18,30.97,33.12,114.72,7.44,140.64-6.47,5.34-2.86,11.72-5.36,15.02-.2,2.56,4.01.02,19.72-1.53,30.08-.8,5.32-2.16,18.18-6.99,20.37-7.05,3.2-15.66,7.64-26.03,12.09,12.4,1.33,24.89,2.44,37.04-.07,14.41-2.98,28.56-12.33,32.57-26.5,1.74-6.13,1.47-12.63,1.21-19-2.34-59.15-1.74-118.4,1.72-177.49Z"/>
  </g>
  <g>
    <path class="cls-1" d="M786.62,258l16.68-29.93c6.28-9.42.65-12.13-5.87-15.25-6.37-3.05-10.53-3.82-32.15-16.08-16.12-9.14-27.94-12.61-32.89-14.6-2.99-1.2-6.32.45-7.31,3.63l-12.35,39.65c-.81,2.59.58,5.34,3.1,6.2,4.86,1.66,14.62,5.95,16.41,6.8l45.64,21.98c3.1,1.47,6.75.46,8.75-2.42Z"/>
    <path class="cls-1" d="M803.81,294.83c19.62-55.18,56.32-105.34,107.05-135.62,41.77-24.93,115.9-46.18,157.76-10.94,48.33,40.68,18.75,97.81-27.46,121.23-37.18,18.85-82.46,27.14-124,26.74-5.74-.05-14.06,2.07-11.09-3.14,10.42-18.26,14.94-31.21,19.4-36.86,2.63-3.34,5.11-3.7,13.67-3.7,11.91,0,38.14-8.18,44.72-10.06,16.83-4.82,58.53-16.1,54.23-41.4-1.39-8.18-8.11-14.71-15.81-17.81-26.97-10.85-59.82,7.08-82.27,21.71-24.62,16.04-45.54,37.82-60.39,63.19-23.39,39.94-45.33,112.93-9.17,151.62,33.57,35.91,124.36,8.07,152.47-7.01,5.79-3.1,12.71-5.81,16.28-.21,2.77,4.34.02,21.38-1.66,32.61-.87,5.77-2.34,19.71-7.58,22.08-27.24,12.35-75.84,41.89-156.38,27.43-69.22-12.42-105.7-98.86-69.78-199.87Z"/>
  </g>
  <path class="cls-1" d="M1474.18,444.09c-11.82,1.78-33.14,4.46-77.51,4.46-31.26,0-69.06-3.05-102.55-8.87-32.71-5.68-54.6-25.43-62.64-53.49-14.14-49.34-8.53-171.36-2.49-225.89.91-8.25,4.71-19.07-.54-24.63-4.57-4.86-14.99-5.22-24.13-5.12-8.33.09-20.31,2.35-34.83,6.37-12.35,3.41-14.78,5.08-26.98,11.92-13.47,7.55-20.93,19.37-22.62,34.73-3.18,28.92-9.43,57.58-15.72,85.96-3.87,17.44-4.17,19.44-22.15,24.85-37.11,11.17-73.16,22.42-108.84,37.63-7.03,3-14.4,6.41-18.61,12.79-4.47,6.79-4.39,15.78-1.76,23.47,2.63,7.69,7.51,14.37,12.32,20.92,31.05-17.14,64.44-29.92,98.96-38.04,15.53-3.66,21.47-6.6,19.03,9.92-1.27,8.6-4.06,17.25-6.06,25.72-7.51,31.91-15.03,63.82-22.54,95.73-1.56,7.45,4.12,14.46,11.73,14.48l29.43.12c7.72.02,14.19-5.83,14.95-13.51l25.95-127.18c.5-4.95,5.47-8.71,10.43-8.67,5.59.03,12.6.78,18.32.78,5.24,0,9.52,4.2,9.6,9.44.79,47.18,3.71,89.05,54.88,114.7,28.09,14.09,51.62,17.54,86.59,21.97,63.28,8.01,132.2-1.87,151.47-3.2,3.53-.24,8.58-4.62,9.74-7.96l3.38-31.14c1.54-4.44-2.16-8.94-6.81-8.25ZM1184.5,210.76l-6.39,74.43c-.34,3.99-3.57,7.14-7.57,7.33-3.4.16-7.73.19-12.3-.22-4.18-.37-7.1-.63-9.12-.82-2.32-.21-3.98-2.32-3.64-4.63l11.72-81.1c.9-6.91,11.58-11.99,11.58-11.99,3.53-1.54,13.8-4.97,15.85-1.85,1.98,3,.11,14.65-.12,18.85Z"/>
  <path class="cls-1" d="M1252.64,325.63s2.02,14.18,4.78,29.33c2.76,15.14,10.63,33.14,27.18,42.74,8.33,4.84,19.45,11.75,43.52,12.47,23.14.69,50.55-9.25,62.27-17.55,20.88-14.78,23.95-31.16,26.15-42.31,4.97-25.18.53-44.95-7.62-61.57-19.82-40.43-93.54-46.02-92.14-81.15.61-15.23,8.88-22.99,19.3-26.92,9.04-3.41,19.75-4.79,27.58,4.85,6.01,7.4,6.86,12.81,8.9,29.12.81,6.5,5.4,13.58,14,11.64,8.97-2.03,16.25-4.56,23.56-8.32,4.68-2.41,7.28-4.16,7.07-7.16-1.45-20.05-9.06-86.3-75.15-81.92-61.34,4.07-82.61,61.02-73.99,94.7,9.92,38.78,39.15,55.43,72.58,72.68,8.34,4.31,16.82,9.57,21.13,17.92,4,7.74,3.64,17.56-.92,24.99-8.43,13.75-26.01,14.69-39.74,9.72-15.86-5.74-18.09-27.32-16.61-42.24.37-3.74.69-8.35-2.47-10.39-1.09-.71-2.42-.93-3.71-1.12-9.58-1.38-27.14-3.45-35.67,2.47-7.85,5.44-10.88,19.26-9.99,28.04Z"/>
  <path class="cls-1" d="M1573.69,148.33c-14.8-17.35-69.67-14.37-90.08,8.78-22.42,25.4-45.27,215.7-49.33,256.63-.47,4.85-.01,9.03,6.62,11.82,0,0,1.89.99,12.84,1.39,10.94.41,19.46-1.01,19.46-1.01,9.77-1.62,11.41-3.49,12.1-9.12l9.73-83.38c.27-2.2,2.43-3.77,4.8-3.5l30.7,3.59c2.1.25,3.7,1.89,3.74,3.86l3.18,147.62c.14,6.23,5.64,11.19,12.35,11.13l34.67-.07c4.33-.04,7.8-3.34,7.72-7.36-.92-48.44-5.17-324.78-18.48-340.37ZM1533.49,274.72c-.04,2.2-2.04,3.85-4.25,3.51l-22.21-3.41c-1.93-.3-3.28-2.03-3.09-3.94,1.53-14.63,7.65-71.64,10.24-77.81,4.16-9.93,17.59-8.56,19.18-2.13,1.39,5.55.42,67.1.12,83.78Z"/>
  <path class="cls-1" d="M629.92,372.48c-2.69,14.98-9.04,60.95-11.78,76.3-.66,3.68,2.77,6.98,7.24,6.98l29.95-2.85c4.41,0,7.82,3.23,7.25,6.88l-4.56,31.26c-.47,3.04-3.58,5.31-7.25,5.31l-65.79.21c-4.38,0-7.77-3.18-7.26-6.81l14.86-124.11c.45-3.2,3.82-5.56,7.68-5.38l22.85,5.21c4.3.2,7.45,3.43,6.82,6.98Z"/>
  <path class="cls-1" d="M759.19,492.32l-12.21-111.15c-3.6-18.32-13.6-19.79-22.47-19.79l-10.89.04c-19.97,0-23.71,26.38-24.18,28.76l-12.77,102.61c-.6,3.02,2.17,5.8,5.8,5.8l26.68-.23c2.94,0,1.29-2.38,1.69-4.82l.3-31.99c-.57-9.87,2.37-16.72,6.41-17.15,3.23-.35,7.61,3.1,8.16,14.67l.37,31.93c.27,5.29,2.73,7.04,5.59,7.04h21.71c3.6,0,6.36-2.71,5.81-5.72ZM724.68,422.52c0,1.4-3.54,1.37-5.2,1.37h-2.29c-1.65,0-5.32.31-5.32-1.08v-25.13c0-1.4,1.57-8.14,5.06-8.14l2.83-.46c1.66,0,4.92,1.35,4.92,6.04v27.41Z"/>
  <path class="cls-1" d="M1762.93,463.4c32.68-.57,33.73,1.15,35.5,24.26.21,2.75-2.29,6.36-5.91,6.73-11.91,1.2-30.23.05-40.98.63-26.85.37-35.3-.74-65.69.39-12.87.48-34.8.94-47.63.96-19.96.04-15.94-14.38-14.64-23.85.82-6,5.46-6.88,8.22-7.5,8.9-2,22.02-.56,31.23-.37,34.4-.9,65.55-1.78,99.92-1.25Z"/>
  <path class="cls-1" d="M1717.76,374.88c0,19.75-7.35,35.68-22.04,47.79-13.73,11.32-30.68,16.98-50.86,16.98-1.21,0-2.14-.81-2.8-2.44-4.28-10.48-6.41-17.28-6.41-20.41,0-1.93,1.41-2.89,4.25-2.89,19.27,0,31.77-4.94,37.49-14.81.78-1.32,1.17-2.29,1.17-2.89,0-.36-.18-.54-.54-.54-.3,0-.99.24-2.08.72-5.06,2.35-10.78,3.52-17.16,3.52-10.54,0-14.36-2.03-21.04-8.3-6.87-6.32-11.32-15.75-11.32-26.23,0-13.61,7.14-23.66,16.23-30.95,8.31-6.74,17.51-10.1,31.42-10.1,14.99,0,22.41,4.33,31.15,13.97,8.37,9.27,12.56,21.47,12.56,36.58ZM1684.34,363.17c0-4.58-.15-7.22-2.74-10.47-2.83-3.55-8.57-5.28-13.02-5.28-10,0-14.51,6.96-14.51,17.44,0,4.28,1.35,7.84,4.06,10.7,2.71,2.86,6.17,4.29,10.39,4.29s7.86-1.17,10.75-3.52c3.07-2.59,5.06-9,5.06-13.15Z"/>
  <path class="cls-1" d="M1800.96,347.15c0,1.08-.78,2.38-2.35,3.88-3.49,3.19-7.47,9-11.92,17.43-3.67,7.05-6.56,13.55-8.67,19.51-5.06,14.51-8.13,28.91-9.21,43.18-.3,3.85-1.6,6.11-3.88,6.78-1.75.54-7.38.81-16.89.81-5.72,0-9.12-.06-10.21-.18-5.12-.54-7.68-1.99-7.68-4.34,0-8.67,2.8-19.63,8.4-32.88,3.91-9.21,9.12-19.45,15.63-30.71,5.6-9.63,8.4-14.39,8.4-14.27,0-.6-1.27-.9-3.79-.9-4.46,0-11.14.23-20.05.68-8.91.45-15.6.68-20.05.68-1.51,0-2.26-.75-2.26-2.26,0-1.75.3-4.18.9-7.32.66-3.67,1.05-6.11,1.17-7.32.24-2.71.36-7.23.36-13.55,0-1.57,1.35-2.35,4.06-2.35,2.53,0,5.81.21,9.85.63,5.54.6,8.85.93,9.94.99,10.36.78,28.12,1.17,53.3,1.17,2.71,0,4.18,1.42,4.43,4.25.36,4.28.54,9.64.54,16.08Z"/>
</svg>